<mxfile host="www.draw.io" modified="2020-01-23T11:25:44.733Z" agent="Mozilla/5.0 (Windows NT 10.0; Win64; x64) AppleWebKit/537.36 (KHTML, like Gecko) Chrome/79.0.3945.130 Safari/537.36" etag="9QMDtdjJc6EWQQ2qpW2z" version="12.5.6" type="github">
  <diagram id="hv5RGUzF3OuiLSWh2C1v" name="Page-1">
    <mxGraphModel dx="2073" dy="709" grid="1" gridSize="10" guides="1" tooltips="1" connect="1" arrows="1" fold="1" page="1" pageScale="1" pageWidth="850" pageHeight="1100" math="0" shadow="0">
      <root>
        <mxCell id="0"/>
        <mxCell id="1" parent="0"/>
        <mxCell id="NAHojii_mlYTGFu2kE71-3" value="&lt;b&gt;&lt;font style=&quot;font-size: 15px&quot; color=&quot;#cc6600&quot;&gt;AWS Cloud - LOL PROD&lt;/font&gt;&lt;/b&gt;" style="outlineConnect=0;gradientColor=none;html=1;whiteSpace=wrap;fontSize=12;fontStyle=0;shape=mxgraph.aws4.group;grIcon=mxgraph.aws4.group_aws_cloud;strokeColor=#AAB7B8;fillColor=none;verticalAlign=top;align=left;spacingLeft=30;fontColor=#AAB7B8;dashed=0;" vertex="1" parent="1">
          <mxGeometry x="130" y="410" width="560" height="180" as="geometry"/>
        </mxCell>
        <mxCell id="NAHojii_mlYTGFu2kE71-18" style="edgeStyle=orthogonalEdgeStyle;rounded=0;orthogonalLoop=1;jettySize=auto;html=1;" edge="1" parent="1" source="NAHojii_mlYTGFu2kE71-4">
          <mxGeometry relative="1" as="geometry">
            <mxPoint x="-230" y="250" as="targetPoint"/>
          </mxGeometry>
        </mxCell>
        <mxCell id="NAHojii_mlYTGFu2kE71-33" style="edgeStyle=orthogonalEdgeStyle;rounded=1;orthogonalLoop=1;jettySize=auto;html=1;" edge="1" parent="1" source="NAHojii_mlYTGFu2kE71-4" target="NAHojii_mlYTGFu2kE71-10">
          <mxGeometry relative="1" as="geometry">
            <Array as="points">
              <mxPoint x="20" y="390"/>
              <mxPoint x="20" y="272"/>
            </Array>
          </mxGeometry>
        </mxCell>
        <mxCell id="NAHojii_mlYTGFu2kE71-4" value="Tavant Users" style="outlineConnect=0;fontColor=#232F3E;gradientColor=none;strokeColor=#232F3E;fillColor=#ffffff;dashed=0;verticalLabelPosition=bottom;verticalAlign=top;align=center;html=1;fontSize=12;fontStyle=0;aspect=fixed;shape=mxgraph.aws4.resourceIcon;resIcon=mxgraph.aws4.users;" vertex="1" parent="1">
          <mxGeometry x="-260" y="360" width="60" height="60" as="geometry"/>
        </mxCell>
        <mxCell id="NAHojii_mlYTGFu2kE71-9" value="Access &amp;amp; Permission are managed &lt;br&gt;DevOps Team" style="text;html=1;align=center;verticalAlign=middle;resizable=0;points=[];autosize=1;" vertex="1" parent="1">
          <mxGeometry x="-189" y="420" width="200" height="30" as="geometry"/>
        </mxCell>
        <mxCell id="NAHojii_mlYTGFu2kE71-10" value="&lt;b&gt;&lt;font style=&quot;font-size: 15px&quot; color=&quot;#cc6600&quot;&gt;AWS Cloud - LOL DEV QA&lt;/font&gt;&lt;/b&gt;" style="outlineConnect=0;gradientColor=none;html=1;whiteSpace=wrap;fontSize=12;fontStyle=0;shape=mxgraph.aws4.group;grIcon=mxgraph.aws4.group_aws_cloud;strokeColor=#AAB7B8;fillColor=none;verticalAlign=top;align=left;spacingLeft=30;fontColor=#AAB7B8;dashed=0;" vertex="1" parent="1">
          <mxGeometry x="279" y="185" width="220" height="175" as="geometry"/>
        </mxCell>
        <mxCell id="NAHojii_mlYTGFu2kE71-13" value="Read Write access to Developers&lt;br&gt;Admin access to DevOps Team" style="text;html=1;align=center;verticalAlign=middle;resizable=0;points=[];autosize=1;" vertex="1" parent="1">
          <mxGeometry x="294" y="141" width="190" height="30" as="geometry"/>
        </mxCell>
        <mxCell id="NAHojii_mlYTGFu2kE71-14" value="Read Only access to Developers on the Read Replica&lt;br&gt;Admin access to DevOps Team" style="text;html=1;align=center;verticalAlign=middle;resizable=0;points=[];autosize=1;" vertex="1" parent="1">
          <mxGeometry x="234" y="640" width="300" height="30" as="geometry"/>
        </mxCell>
        <mxCell id="NAHojii_mlYTGFu2kE71-16" value="&lt;font face=&quot;Verdana&quot; style=&quot;font-size: 27px&quot;&gt;Access controls on LOL - Datasilo DataBase&lt;/font&gt;" style="rounded=0;whiteSpace=wrap;html=1;fillColor=#e1d5e7;strokeColor=#9673a6;" vertex="1" parent="1">
          <mxGeometry x="-290" y="10" width="990" height="90" as="geometry"/>
        </mxCell>
        <mxCell id="NAHojii_mlYTGFu2kE71-20" style="edgeStyle=orthogonalEdgeStyle;rounded=0;orthogonalLoop=1;jettySize=auto;html=1;" edge="1" parent="1" source="NAHojii_mlYTGFu2kE71-17" target="NAHojii_mlYTGFu2kE71-19">
          <mxGeometry relative="1" as="geometry"/>
        </mxCell>
        <mxCell id="NAHojii_mlYTGFu2kE71-17" value="Project Manager" style="outlineConnect=0;fontColor=#232F3E;gradientColor=none;strokeColor=#232F3E;fillColor=#ffffff;dashed=0;verticalLabelPosition=bottom;verticalAlign=top;align=center;html=1;fontSize=12;fontStyle=0;aspect=fixed;shape=mxgraph.aws4.resourceIcon;resIcon=mxgraph.aws4.user;" vertex="1" parent="1">
          <mxGeometry x="-260" y="162.5" width="60" height="60" as="geometry"/>
        </mxCell>
        <mxCell id="NAHojii_mlYTGFu2kE71-19" value="DevOps Team" style="outlineConnect=0;fontColor=#232F3E;gradientColor=none;strokeColor=#232F3E;fillColor=#ffffff;dashed=0;verticalLabelPosition=bottom;verticalAlign=top;align=center;html=1;fontSize=12;fontStyle=0;aspect=fixed;shape=mxgraph.aws4.resourceIcon;resIcon=mxgraph.aws4.user;" vertex="1" parent="1">
          <mxGeometry x="-110" y="162.5" width="60" height="60" as="geometry"/>
        </mxCell>
        <mxCell id="NAHojii_mlYTGFu2kE71-22" value="Approved" style="text;html=1;align=center;verticalAlign=middle;resizable=0;points=[];autosize=1;" vertex="1" parent="1">
          <mxGeometry x="-193" y="171" width="70" height="20" as="geometry"/>
        </mxCell>
        <mxCell id="NAHojii_mlYTGFu2kE71-23" value="Request &lt;br&gt;Access" style="text;html=1;align=center;verticalAlign=middle;resizable=0;points=[];autosize=1;" vertex="1" parent="1">
          <mxGeometry x="-300" y="295" width="60" height="30" as="geometry"/>
        </mxCell>
        <mxCell id="NAHojii_mlYTGFu2kE71-26" value="" style="endArrow=classic;html=1;" edge="1" parent="1" target="NAHojii_mlYTGFu2kE71-4">
          <mxGeometry width="50" height="50" relative="1" as="geometry">
            <mxPoint x="-90" y="250" as="sourcePoint"/>
            <mxPoint x="-110" y="260" as="targetPoint"/>
          </mxGeometry>
        </mxCell>
        <mxCell id="NAHojii_mlYTGFu2kE71-28" value="Specific access roles &lt;br&gt;assigned to user" style="text;html=1;align=center;verticalAlign=middle;resizable=0;points=[];autosize=1;" vertex="1" parent="1">
          <mxGeometry x="-39" y="177.5" width="130" height="30" as="geometry"/>
        </mxCell>
        <mxCell id="NAHojii_mlYTGFu2kE71-30" value="Grants access&amp;nbsp;" style="text;html=1;align=center;verticalAlign=middle;resizable=0;points=[];autosize=1;" vertex="1" parent="1">
          <mxGeometry x="-139" y="295" width="100" height="20" as="geometry"/>
        </mxCell>
        <mxCell id="NAHojii_mlYTGFu2kE71-31" value="" style="outlineConnect=0;fontColor=#232F3E;gradientColor=none;fillColor=#3334B9;strokeColor=none;dashed=0;verticalLabelPosition=bottom;verticalAlign=top;align=center;html=1;fontSize=12;fontStyle=0;aspect=fixed;pointerEvents=1;shape=mxgraph.aws4.rds_postgresql_instance;" vertex="1" parent="1">
          <mxGeometry x="359" y="233.5" width="78" height="78" as="geometry"/>
        </mxCell>
        <mxCell id="NAHojii_mlYTGFu2kE71-32" value="" style="outlineConnect=0;fontColor=#232F3E;gradientColor=none;fillColor=#3334B9;strokeColor=none;dashed=0;verticalLabelPosition=bottom;verticalAlign=top;align=center;html=1;fontSize=12;fontStyle=0;aspect=fixed;pointerEvents=1;shape=mxgraph.aws4.rds_postgresql_instance;" vertex="1" parent="1">
          <mxGeometry x="201" y="470" width="78" height="78" as="geometry"/>
        </mxCell>
        <mxCell id="NAHojii_mlYTGFu2kE71-34" value="" style="outlineConnect=0;fontColor=#232F3E;gradientColor=none;fillColor=#3334B9;strokeColor=none;dashed=0;verticalLabelPosition=bottom;verticalAlign=top;align=center;html=1;fontSize=12;fontStyle=0;aspect=fixed;pointerEvents=1;shape=mxgraph.aws4.rds_postgresql_instance;" vertex="1" parent="1">
          <mxGeometry x="510" y="470" width="78" height="78" as="geometry"/>
        </mxCell>
        <mxCell id="NAHojii_mlYTGFu2kE71-35" value="" style="endArrow=classic;html=1;exitX=1.036;exitY=0.814;exitDx=0;exitDy=0;exitPerimeter=0;" edge="1" parent="1" source="NAHojii_mlYTGFu2kE71-4">
          <mxGeometry width="50" height="50" relative="1" as="geometry">
            <mxPoint x="20" y="390" as="sourcePoint"/>
            <mxPoint x="549" y="570" as="targetPoint"/>
            <Array as="points">
              <mxPoint x="20" y="410"/>
              <mxPoint x="20" y="630"/>
              <mxPoint x="550" y="630"/>
            </Array>
          </mxGeometry>
        </mxCell>
        <mxCell id="NAHojii_mlYTGFu2kE71-37" value="RDS" style="text;html=1;align=center;verticalAlign=middle;resizable=0;points=[];autosize=1;" vertex="1" parent="1">
          <mxGeometry x="220" y="548" width="40" height="20" as="geometry"/>
        </mxCell>
        <mxCell id="NAHojii_mlYTGFu2kE71-38" value="RDS" style="text;html=1;align=center;verticalAlign=middle;resizable=0;points=[];autosize=1;" vertex="1" parent="1">
          <mxGeometry x="378" y="311.5" width="40" height="20" as="geometry"/>
        </mxCell>
        <mxCell id="NAHojii_mlYTGFu2kE71-39" value="Read Replica" style="text;html=1;align=center;verticalAlign=middle;resizable=0;points=[];autosize=1;" vertex="1" parent="1">
          <mxGeometry x="504" y="548" width="90" height="20" as="geometry"/>
        </mxCell>
      </root>
    </mxGraphModel>
  </diagram>
</mxfile>
